<?xml version="1.0" encoding="UTF-8" standalone="no"?>
<svg width="101px" height="103px" viewBox="0 0 101 103" version="1.1" xmlns="http://www.w3.org/2000/svg" xmlns:xlink="http://www.w3.org/1999/xlink">
    <!-- Generator: Sketch 45.2 (43514) - http://www.bohemiancoding.com/sketch -->
    <title>logo-wht</title>
    <desc>Created with Sketch.</desc>
    <defs>
        <polygon id="path-1" points="0 51.1413875 0 0.501885508 100.946258 0.501885508 100.946258 101.780889 0 101.780889"></polygon>
    </defs>
    <g id="Page-1" stroke="none" stroke-width="1" fill="none" fill-rule="evenodd">
        <g id="logo-wht">
            <path d="M50.4731292,101.586365 C22.9557675,101.586365 0.568450185,79.1243562 0.568450185,51.5171436 C0.568450185,23.9090535 22.9557675,1.44879957 50.4731292,1.44879957 C77.9904908,1.44879957 100.377808,23.9090535 100.377808,51.5171436 C100.377808,79.1243562 77.9904908,101.586365 50.4731292,101.586365" id="Fill-1" fill="#010101" fill-rule="nonzero"></path>
            <g id="Group-5" transform="translate(0.000000, 0.375537)">
                <g id="Fill-3-Clipped">
                    <mask id="mask-2" fill="white">
                        <use xlink:href="#path-1"></use>
                    </mask>
                    <g id="path-1"></g>
                    <path d="M50.4731292,0.501797766 C22.6418081,0.501797766 0,23.2200138 0,51.1413436 C0,79.0644283 22.6418081,101.780889 50.4731292,101.780889 C78.3044502,101.780889 100.946258,79.0644283 100.946258,51.1413436 C100.946258,23.2200138 78.3044502,0.501797766 50.4731292,0.501797766 M50.4731292,1.64244665 C77.7202583,1.64244665 99.8093579,23.804377 99.8093579,51.1413436 C99.8093579,78.4791876 77.7202583,100.640241 50.4731292,100.640241 C23.226,100.640241 1.13690037,78.4791876 1.13690037,51.1413436 C1.13690037,23.804377 23.226,1.64244665 50.4731292,1.64244665" id="Fill-3" fill="#FFFFFF" fill-rule="nonzero" mask="url(#mask-2)"></path>
                </g>
            </g>
            <g id="novo" transform="translate(18.112132, 29.600433)" fill-rule="nonzero" fill="#FFFFFF">
                <g id="Group-2">
                    <path d="M2.30983452,3.26850561 C2.79782714,2.62535512 3.34966109,2.07784366 3.9662109,1.62684864 C4.58276072,1.17585362 5.24915924,0.834536378 5.96890463,0.602896913 C6.68690094,0.370380026 7.43113341,0.254560293 8.20160205,0.254560293 C9.43382714,0.254560293 10.4605356,0.473915847 11.282602,0.911749534 C12.1037939,1.34958322 12.7588234,1.92955931 13.2468161,2.65080037 C13.7339342,3.37204143 14.081126,4.18277956 14.2857681,5.08389218 C14.4921592,5.98675964 14.5944803,6.90103359 14.5944803,7.82759145 L14.5944803,18.5681168 L13.7470522,18.5681168 L13.7470522,7.90480461 C13.7470522,7.18444097 13.6700928,6.41143199 13.516174,5.58753253 C13.3622552,4.76275565 13.0736574,4.01694676 12.6495061,3.34571876 C12.2262294,2.67624561 11.6551556,2.11645024 10.9362847,1.66545522 C10.2174139,1.2144602 9.30526994,0.988962689 8.20160205,0.988962689 C7.22561681,0.988962689 6.30822566,1.18901495 5.44855408,1.58824206 C4.58800795,1.98746917 3.84377548,2.56042588 3.21498212,3.30711219 C2.58531422,4.05467592 2.08507806,4.96280791 1.71252456,6.03063075 C1.34084559,7.10020843 1.15544338,8.31719305 1.15544338,9.68246202 L1.15544338,18.5681168 L0.308015332,18.5681168 L0.308015332,5.27780249 C0.308015332,4.99439511 0.301019022,4.64693591 0.287900941,4.23454747 C0.27478286,3.82303645 0.262539317,3.40362863 0.250295775,2.97895628 C0.236303155,2.55516135 0.217063302,2.14803744 0.191701679,1.76197166 C0.166340055,1.37590589 0.140978432,1.05389193 0.114742269,0.795929801 L0.962170313,0.795929801 C0.987531937,1.05389193 1.00677179,1.37590589 1.01988987,1.76197166 C1.03300795,2.14803744 1.04525149,2.56656784 1.05836958,3.01756286 C1.07148766,3.46855787 1.0837312,3.90726898 1.09684928,4.33106391 C1.10996736,4.75573627 1.11608913,5.13653751 1.11608913,5.47083537 L1.19392308,5.47083537 C1.45016293,4.64693591 1.8218419,3.91253352 2.30983452,3.26850561" id="Fill-6"></path>
                    <path d="M33.73516,9.64359221 C33.73516,8.45907222 33.5427615,7.33860405 33.1579644,6.2821877 C32.7722928,5.22664877 32.2143371,4.30535544 31.4823482,3.52006256 C30.7512338,2.73476967 29.865326,2.11618701 28.8254995,1.66519199 C27.7856729,1.21507439 26.6111674,0.989576884 25.3011083,0.989576884 C23.9919238,0.989576884 22.8235401,1.21507439 21.7977061,1.66519199 C20.7701231,2.11618701 19.8912116,2.73476967 19.1592227,3.52006256 C18.4281083,4.30535544 17.8692781,5.22664877 17.484481,6.2821877 C17.099684,7.33860405 16.9072854,8.45907222 16.9072854,9.64359221 C16.9072854,10.8544349 17.099684,11.9880644 17.484481,13.0436033 C17.8692781,14.1000197 18.4281083,15.0204356 19.1592227,15.8057284 C19.8912116,16.5918988 20.7701231,17.2166234 21.7977061,17.6799023 C22.8235401,18.1440587 23.9919238,18.3756981 25.3011083,18.3756981 C26.6111674,18.3756981 27.7856729,18.1440587 28.8254995,17.6799023 C29.865326,17.2166234 30.7512338,16.5918988 31.4823482,15.8057284 C32.2143371,15.0204356 32.7722928,14.1000197 33.1579644,13.0436033 C33.5427615,11.9880644 33.73516,10.8544349 33.73516,9.64359221 M34.582588,9.64359221 C34.582588,11.0343064 34.3578316,12.3092009 33.9083187,13.4682757 C33.4596803,14.6282278 32.8238906,15.6258569 32.0026987,16.4629177 C31.1806323,17.3017333 30.1985253,17.9510258 29.0563777,18.4143047 C27.9142301,18.8775836 26.6618906,19.1092231 25.3011083,19.1092231 C23.9412006,19.1092231 22.6958574,18.8775836 21.5668279,18.4143047 C20.4360493,17.9510258 19.4609386,17.3017333 18.6397467,16.4629177 C17.8176803,15.6258569 17.1818906,14.6282278 16.7341268,13.4682757 C16.2837393,12.3092009 16.0598574,11.0343064 16.0598574,9.64359221 C16.0598574,8.252878 16.2837393,6.9850029 16.7341268,5.83821206 C17.1818906,4.69142122 17.8176803,3.70695349 18.6397467,2.88217661 C19.4609386,2.05739972 20.4360493,1.41424924 21.5668279,0.950970307 C22.6958574,0.486813954 23.9412006,0.255174488 25.3011083,0.255174488 C26.6618906,0.255174488 27.9142301,0.486813954 29.0563777,0.950970307 C30.1985253,1.41424924 31.1806323,2.05739972 32.0026987,2.88217661 C32.8238906,3.70695349 33.4596803,4.69142122 33.9083187,5.83821206 C34.3578316,6.9850029 34.582588,8.252878 34.582588,9.64359221" id="Fill-8"></path>
                    <polygon id="Fill-10" points="41.5787231 18.5685555 40.4628116 18.5685555 33.4918633 0.79549109 34.4162508 0.79549109 41.0015275 17.7183334 41.0784869 17.7183334 47.4320109 0.79549109 48.3563984 0.79549109"></polygon>
                    <path d="M65.3987973,9.64359221 C65.3987973,8.45907222 65.2063987,7.33860405 64.8216017,6.2821877 C64.4359301,5.22664877 63.8779744,4.30535544 63.1459854,3.52006256 C62.4148711,2.73476967 61.5289633,2.11618701 60.4891367,1.66519199 C59.4493102,1.21507439 58.2748046,0.989576884 56.9647456,0.989576884 C55.6555611,0.989576884 54.4871773,1.21507439 53.4613434,1.66519199 C52.4337604,2.11618701 51.5548489,2.73476967 50.82286,3.52006256 C50.0917456,4.30535544 49.5329153,5.22664877 49.1481183,6.2821877 C48.7633212,7.33860405 48.5709227,8.45907222 48.5709227,9.64359221 C48.5709227,10.8544349 48.7633212,11.9880644 49.1481183,13.0436033 C49.5329153,14.1000197 50.0917456,15.0204356 50.82286,15.8057284 C51.5548489,16.5918988 52.4337604,17.2166234 53.4613434,17.6799023 C54.4871773,18.1440587 55.6555611,18.3756981 56.9647456,18.3756981 C58.2748046,18.3756981 59.4493102,18.1440587 60.4891367,17.6799023 C61.5289633,17.2166234 62.4148711,16.5918988 63.1459854,15.8057284 C63.8779744,15.0204356 64.4359301,14.1000197 64.8216017,13.0436033 C65.2063987,11.9880644 65.3987973,10.8544349 65.3987973,9.64359221 M66.2462253,9.64359221 C66.2462253,11.0343064 66.0214688,12.3092009 65.5719559,13.4682757 C65.1233175,14.6282278 64.4875279,15.6258569 63.666336,16.4629177 C62.8442696,17.3017333 61.8621626,17.9510258 60.720015,18.4143047 C59.5778674,18.8775836 58.3255279,19.1092231 56.9647456,19.1092231 C55.6048378,19.1092231 54.3594947,18.8775836 53.2304651,18.4143047 C52.0996865,17.9510258 51.1245758,17.3017333 50.303384,16.4629177 C49.4813175,15.6258569 48.8455279,14.6282278 48.397764,13.4682757 C47.9473766,12.3092009 47.7234947,11.0343064 47.7234947,9.64359221 C47.7234947,8.252878 47.9473766,6.9850029 48.397764,5.83821206 C48.8455279,4.69142122 49.4813175,3.70695349 50.303384,2.88217661 C51.1245758,2.05739972 52.0996865,1.41424924 53.2304651,0.950970307 C54.3594947,0.486813954 55.6048378,0.255174488 56.9647456,0.255174488 C58.3255279,0.255174488 59.5778674,0.486813954 60.720015,0.950970307 C61.8621626,1.41424924 62.8442696,2.05739972 63.666336,2.88217661 C64.4875279,3.70695349 65.1233175,4.69142122 65.5719559,5.83821206 C66.0214688,6.9850029 66.2462253,8.252878 66.2462253,9.64359221" id="Fill-12"></path>
                    <path d="M12.5250592,40.2548353 C12.5250592,41.0532895 12.3702659,41.7683886 12.0633028,42.3992552 C11.7545906,43.0309992 11.3374356,43.5644719 10.8109633,44.0023056 C10.284491,44.4410167 9.67493747,44.7753146 8.98142825,45.006954 C8.28879356,45.2394709 7.54456109,45.3544132 6.74873083,45.3544132 C5.43867179,45.3544132 4.25104817,45.1034705 3.18585998,44.601585 C2.12154633,44.0996995 1.24176035,43.3591551 0.549125664,42.3799519 L1.24176035,41.9175504 C2.52470869,43.7188982 4.3734836,44.6208883 6.786336,44.6208883 C7.35128803,44.6208883 7.92236183,44.5305138 8.50043194,44.3506422 C9.07850205,44.1707707 9.60409983,43.8996472 10.0789744,43.5390267 C10.5538489,43.1784061 10.9395205,42.7274111 11.2342401,42.186919 C11.5289596,41.6455495 11.6776312,41.0278443 11.6776312,40.3320485 C11.6776312,39.508149 11.4904799,38.8386758 11.1196755,38.323629 C10.747122,37.8085822 10.2783692,37.3953163 9.71341718,37.0873411 C9.14933969,36.7776111 8.52579356,36.5266683 7.84540242,36.332758 C7.16501127,36.1406025 6.53009614,35.9659955 5.93978249,35.813324 C5.29699651,35.6316976 4.69443932,35.4325228 4.12948729,35.2131672 C3.56453526,34.9946891 3.07042087,34.7112817 2.64714411,34.3629451 C2.22386736,34.0154859 1.88979356,33.5837942 1.64667179,33.0696248 C1.40180094,32.5537005 1.28024006,31.9096726 1.28024006,31.1366636 C1.28024006,30.3654095 1.43415887,29.6950589 1.74199651,29.1273667 C2.04983415,28.5614294 2.46086736,28.0911311 2.9742216,27.7173492 C3.48757585,27.3444448 4.07176773,27.0610374 4.72679725,26.8671271 C5.38095223,26.6740942 6.04210352,26.5775778 6.71025113,26.5775778 C9.12222899,26.5775778 10.9333987,27.4409612 12.1402622,29.1659733 L11.4082733,29.5915231 C10.8170851,28.8185141 10.149812,28.2455574 9.40557954,27.872653 C8.66047253,27.4988711 7.76232124,27.3119802 6.71025113,27.3119802 C6.22225851,27.3119802 5.70890426,27.376032 5.16931386,27.5050131 C4.63059799,27.6339941 4.13560906,27.8463303 3.68697068,28.1420216 C3.23745777,28.4385903 2.86490426,28.8316755 2.5701847,29.3203996 C2.27459061,29.8108787 2.12679356,30.4022612 2.12679356,31.098057 C2.12679356,31.8701886 2.24922899,32.4887713 2.49322529,32.9529276 C2.7372216,33.4162065 3.07654264,33.7899884 3.51381201,34.0733958 C3.94933231,34.3568032 4.47667917,34.5945846 5.09235445,34.7884949 C5.70890426,34.9806504 6.38842087,35.1684187 7.13352788,35.3482903 C7.8270371,35.5281618 8.50043194,35.740498 9.15458692,35.9861762 C9.81049098,36.230977 10.3876865,36.5336877 10.8879227,36.8934308 C11.3890334,37.2549287 11.786074,37.7050463 12.0816681,38.2455384 C12.3763877,38.7869079 12.5250592,39.4572585 12.5250592,40.2548353" id="Fill-14"></path>
                    <path d="M26.9745382,35.1933375 L24.2398556,35.1933375 C23.2647449,35.1933375 22.2380364,35.2512474 21.1597301,35.3670671 C20.0814238,35.4828868 19.0923205,35.7233005 18.1941692,36.0821662 C17.2960179,36.4436642 16.5579072,36.958711 15.9807116,37.6273067 C15.4026415,38.2976573 15.1131692,39.1987699 15.1131692,40.331522 C15.1131692,41.1571763 15.2732098,41.8459528 15.5950401,42.3996062 C15.9151212,42.9532596 16.3261544,43.3981127 16.8272651,43.7315331 C17.3283758,44.0667084 17.8802098,44.313264 18.482767,44.4659355 C19.0853242,44.6203618 19.6581471,44.6984524 20.1968629,44.6984524 C21.5060474,44.6984524 22.5965973,44.4536516 23.4702615,43.96405 C24.3421766,43.4744484 25.0426821,42.8514786 25.5691544,42.0898761 C26.0947522,41.3309059 26.4603094,40.4929677 26.665826,39.5786937 C26.8713426,38.6644198 26.9745382,37.771204 26.9745382,36.8929043 L26.9745382,35.1933375 Z M27.8219663,40.8737689 C27.8219663,41.5432421 27.8534496,42.2583412 27.9181655,43.0173114 C27.9811323,43.7771591 28.0519699,44.4018837 28.1298039,44.8914853 L27.3208556,44.8914853 C27.2692578,44.6344006 27.2307781,44.3176511 27.2054164,43.9447467 C27.1791803,43.5718423 27.1476969,43.1848991 27.1092172,42.7856719 C27.0707375,42.3864448 27.0445013,41.9933597 27.0322578,41.6081713 C27.0191397,41.2203507 27.0130179,40.8992142 27.0130179,40.641252 L26.8975788,40.641252 C26.38335,42.2653606 25.4983168,43.4683064 24.2398556,44.2535993 C22.9822688,45.0397696 21.6346046,45.4319774 20.1968629,45.4319774 C19.4779921,45.4319774 18.765243,45.329319 18.0594902,45.1231247 C17.3528629,44.9169305 16.7170733,44.6080779 16.1529958,44.1956895 C15.5880437,43.7841784 15.1332836,43.2550928 14.7860917,42.6119423 C14.4397744,41.9687919 14.2666157,41.2080668 14.2666157,40.331522 C14.2666157,39.0706663 14.5936932,38.0528565 15.2487227,37.2798475 C15.9028777,36.5068386 16.7170733,35.9075592 17.693933,35.4828868 C18.6690437,35.0582145 19.7149921,34.7818265 20.8326526,34.6528454 C21.9494386,34.5238643 22.9691508,34.4598125 23.8944127,34.4598125 L26.9745382,34.4598125 L26.9745382,33.0296143 C26.9745382,31.0466401 26.4471913,29.598016 25.3951212,28.6828646 C24.3421766,27.7694681 22.9691508,27.3132086 21.2751692,27.3132086 C20.2222246,27.3132086 19.2401175,27.5044866 18.3288482,27.8914298 C17.4175788,28.2774956 16.6025087,28.7934198 15.8836378,29.4365703 L15.4218814,28.7793811 C16.2430733,28.0590175 17.1735825,27.511506 18.2134091,27.1377241 C19.2532356,26.7656971 20.2738223,26.5779287 21.2751692,26.5779287 C23.3032246,26.5779287 24.9010068,27.0991175 26.0693906,28.1423726 C27.2377744,29.1856276 27.8219663,30.8272845 27.8219663,33.0682209 L27.8219663,40.8737689 Z" id="Fill-16"></path>
                    <path d="M33.0331677,29.5911721 C33.5211604,28.9480216 34.0729943,28.4005102 34.6895441,27.9495152 C35.3060939,27.4985201 35.9724925,27.1572029 36.6922378,26.9255634 C37.4102342,26.6930465 38.1544666,26.5772268 38.9249353,26.5772268 C40.1571604,26.5772268 41.1838688,26.7965824 42.0059353,27.2344161 C42.8271271,27.6722497 43.4821567,28.2522258 43.9701493,28.9734669 C44.4572674,29.6947079 44.8044592,30.5054461 45.0091013,31.4065587 C45.2154925,32.3094262 45.3178135,33.2237001 45.3178135,34.150258 L45.3178135,44.8907833 L44.4703854,44.8907833 L44.4703854,34.2274711 C44.4703854,33.5071075 44.393426,32.7340985 44.2395072,31.910199 C44.0855884,31.0854222 43.7969906,30.3396133 43.3728393,29.6683853 C42.9495626,28.9989121 42.3784888,28.4391168 41.6596179,27.9881217 C40.9407471,27.5371267 40.0286032,27.3116292 38.9249353,27.3116292 C37.94895,27.3116292 37.0315589,27.5116815 36.1718873,27.9109086 C35.3113412,28.3101357 34.5671087,28.8830924 33.9383153,29.6297787 C33.3086474,30.3773424 32.8084113,31.2854744 32.4358578,32.3532973 C32.0641788,33.422875 31.8787766,34.6398596 31.8787766,36.0051285 L31.8787766,44.8907833 L31.0313485,44.8907833 L31.0313485,31.600469 C31.0313485,31.3170616 31.0243522,30.9696024 31.0112342,30.557214 C30.9981161,30.145703 30.9858725,29.7262951 30.973629,29.3016228 C30.9596364,28.8778279 30.9403965,28.470704 30.9150349,28.0846382 C30.8896733,27.6985724 30.8643116,27.3765585 30.8380755,27.1185963 L31.6855035,27.1185963 C31.7108651,27.3765585 31.730105,27.6985724 31.7432231,28.0846382 C31.7563412,28.470704 31.7685847,28.8892344 31.7817028,29.3402294 C31.7948209,29.7912244 31.8070644,30.2299355 31.8201825,30.6537304 C31.8333006,31.0784028 31.8394223,31.459204 31.8394223,31.7935019 L31.9172563,31.7935019 C32.1734961,30.9696024 32.5451751,30.2352 33.0331677,29.5911721" id="Fill-18"></path>
                    <path d="M65.4346533,35.9662587 C65.4346533,34.7817387 65.2422548,33.6612706 64.8574578,32.6048542 C64.4717862,31.5493153 63.9138305,30.628022 63.1818415,29.8427291 C62.4507271,29.0574362 61.5648194,28.4388535 60.5249928,27.9878585 C59.4851663,27.5377409 58.3106607,27.3122434 57.0006017,27.3122434 C55.6914172,27.3122434 54.5230334,27.5377409 53.4971995,27.9878585 C52.4696164,28.4388535 51.590705,29.0574362 50.8587161,29.8427291 C50.1276017,30.628022 49.5687714,31.5493153 49.1839744,32.6048542 C48.7991773,33.6612706 48.6067788,34.7817387 48.6067788,35.9662587 C48.6067788,37.1771014 48.7991773,38.3107309 49.1839744,39.3662698 C49.5687714,40.4226862 50.1276017,41.3431021 50.8587161,42.128395 C51.590705,42.9145653 52.4696164,43.5392899 53.4971995,44.0025688 C54.5230334,44.4667252 55.6914172,44.6983646 57.0006017,44.6983646 C58.3106607,44.6983646 59.4851663,44.4667252 60.5249928,44.0025688 C61.5648194,43.5392899 62.4507271,42.9145653 63.1818415,42.128395 C63.9138305,41.3431021 64.4717862,40.4226862 64.8574578,39.3662698 C65.2422548,38.3107309 65.4346533,37.1771014 65.4346533,35.9662587 M66.2820814,35.9662587 C66.2820814,37.3569729 66.0573249,38.6318674 65.607812,39.7909422 C65.1591736,40.9508943 64.523384,41.9485234 63.7021921,42.7855842 C62.8801257,43.6243998 61.8980187,44.2736923 60.7558711,44.7369712 C59.6137234,45.2002501 58.361384,45.4318896 57.0006017,45.4318896 C55.6406939,45.4318896 54.3953508,45.2002501 53.2663212,44.7369712 C52.1355426,44.2736923 51.1604319,43.6243998 50.3392401,42.7855842 C49.5171736,41.9485234 48.881384,40.9508943 48.4336201,39.7909422 C47.9832327,38.6318674 47.7593508,37.3569729 47.7593508,35.9662587 C47.7593508,34.5755445 47.9832327,33.3076694 48.4336201,32.1608786 C48.881384,31.0140877 49.5171736,30.02962 50.3392401,29.2048431 C51.1604319,28.3800662 52.1355426,27.7369158 53.2663212,27.2736368 C54.3953508,26.8094805 55.6406939,26.577841 57.0006017,26.577841 C58.361384,26.577841 59.6137234,26.8094805 60.7558711,27.2736368 C61.8980187,27.7369158 62.8801257,28.3800662 63.7021921,29.2048431 C64.523384,30.02962 65.1591736,31.0140877 65.607812,32.1608786 C66.0573249,33.3076694 66.2820814,34.5755445 66.2820814,35.9662587" id="Fill-20"></path>
                </g>
                <g id="Group-2-Copy">
                    <path d="M2.30983452,3.26850561 C2.79782714,2.62535512 3.34966109,2.07784366 3.9662109,1.62684864 C4.58276072,1.17585362 5.24915924,0.834536378 5.96890463,0.602896913 C6.68690094,0.370380026 7.43113341,0.254560293 8.20160205,0.254560293 C9.43382714,0.254560293 10.4605356,0.473915847 11.282602,0.911749534 C12.1037939,1.34958322 12.7588234,1.92955931 13.2468161,2.65080037 C13.7339342,3.37204143 14.081126,4.18277956 14.2857681,5.08389218 C14.4921592,5.98675964 14.5944803,6.90103359 14.5944803,7.82759145 L14.5944803,18.5681168 L13.7470522,18.5681168 L13.7470522,7.90480461 C13.7470522,7.18444097 13.6700928,6.41143199 13.516174,5.58753253 C13.3622552,4.76275565 13.0736574,4.01694676 12.6495061,3.34571876 C12.2262294,2.67624561 11.6551556,2.11645024 10.9362847,1.66545522 C10.2174139,1.2144602 9.30526994,0.988962689 8.20160205,0.988962689 C7.22561681,0.988962689 6.30822566,1.18901495 5.44855408,1.58824206 C4.58800795,1.98746917 3.84377548,2.56042588 3.21498212,3.30711219 C2.58531422,4.05467592 2.08507806,4.96280791 1.71252456,6.03063075 C1.34084559,7.10020843 1.15544338,8.31719305 1.15544338,9.68246202 L1.15544338,18.5681168 L0.308015332,18.5681168 L0.308015332,5.27780249 C0.308015332,4.99439511 0.301019022,4.64693591 0.287900941,4.23454747 C0.27478286,3.82303645 0.262539317,3.40362863 0.250295775,2.97895628 C0.236303155,2.55516135 0.217063302,2.14803744 0.191701679,1.76197166 C0.166340055,1.37590589 0.140978432,1.05389193 0.114742269,0.795929801 L0.962170313,0.795929801 C0.987531937,1.05389193 1.00677179,1.37590589 1.01988987,1.76197166 C1.03300795,2.14803744 1.04525149,2.56656784 1.05836958,3.01756286 C1.07148766,3.46855787 1.0837312,3.90726898 1.09684928,4.33106391 C1.10996736,4.75573627 1.11608913,5.13653751 1.11608913,5.47083537 L1.19392308,5.47083537 C1.45016293,4.64693591 1.8218419,3.91253352 2.30983452,3.26850561" id="Fill-6"></path>
                    <path d="M33.73516,9.64359221 C33.73516,8.45907222 33.5427615,7.33860405 33.1579644,6.2821877 C32.7722928,5.22664877 32.2143371,4.30535544 31.4823482,3.52006256 C30.7512338,2.73476967 29.865326,2.11618701 28.8254995,1.66519199 C27.7856729,1.21507439 26.6111674,0.989576884 25.3011083,0.989576884 C23.9919238,0.989576884 22.8235401,1.21507439 21.7977061,1.66519199 C20.7701231,2.11618701 19.8912116,2.73476967 19.1592227,3.52006256 C18.4281083,4.30535544 17.8692781,5.22664877 17.484481,6.2821877 C17.099684,7.33860405 16.9072854,8.45907222 16.9072854,9.64359221 C16.9072854,10.8544349 17.099684,11.9880644 17.484481,13.0436033 C17.8692781,14.1000197 18.4281083,15.0204356 19.1592227,15.8057284 C19.8912116,16.5918988 20.7701231,17.2166234 21.7977061,17.6799023 C22.8235401,18.1440587 23.9919238,18.3756981 25.3011083,18.3756981 C26.6111674,18.3756981 27.7856729,18.1440587 28.8254995,17.6799023 C29.865326,17.2166234 30.7512338,16.5918988 31.4823482,15.8057284 C32.2143371,15.0204356 32.7722928,14.1000197 33.1579644,13.0436033 C33.5427615,11.9880644 33.73516,10.8544349 33.73516,9.64359221 M34.582588,9.64359221 C34.582588,11.0343064 34.3578316,12.3092009 33.9083187,13.4682757 C33.4596803,14.6282278 32.8238906,15.6258569 32.0026987,16.4629177 C31.1806323,17.3017333 30.1985253,17.9510258 29.0563777,18.4143047 C27.9142301,18.8775836 26.6618906,19.1092231 25.3011083,19.1092231 C23.9412006,19.1092231 22.6958574,18.8775836 21.5668279,18.4143047 C20.4360493,17.9510258 19.4609386,17.3017333 18.6397467,16.4629177 C17.8176803,15.6258569 17.1818906,14.6282278 16.7341268,13.4682757 C16.2837393,12.3092009 16.0598574,11.0343064 16.0598574,9.64359221 C16.0598574,8.252878 16.2837393,6.9850029 16.7341268,5.83821206 C17.1818906,4.69142122 17.8176803,3.70695349 18.6397467,2.88217661 C19.4609386,2.05739972 20.4360493,1.41424924 21.5668279,0.950970307 C22.6958574,0.486813954 23.9412006,0.255174488 25.3011083,0.255174488 C26.6618906,0.255174488 27.9142301,0.486813954 29.0563777,0.950970307 C30.1985253,1.41424924 31.1806323,2.05739972 32.0026987,2.88217661 C32.8238906,3.70695349 33.4596803,4.69142122 33.9083187,5.83821206 C34.3578316,6.9850029 34.582588,8.252878 34.582588,9.64359221" id="Fill-8"></path>
                    <polygon id="Fill-10" points="41.5787231 18.5685555 40.4628116 18.5685555 33.4918633 0.79549109 34.4162508 0.79549109 41.0015275 17.7183334 41.0784869 17.7183334 47.4320109 0.79549109 48.3563984 0.79549109"></polygon>
                    <path d="M65.3987973,9.64359221 C65.3987973,8.45907222 65.2063987,7.33860405 64.8216017,6.2821877 C64.4359301,5.22664877 63.8779744,4.30535544 63.1459854,3.52006256 C62.4148711,2.73476967 61.5289633,2.11618701 60.4891367,1.66519199 C59.4493102,1.21507439 58.2748046,0.989576884 56.9647456,0.989576884 C55.6555611,0.989576884 54.4871773,1.21507439 53.4613434,1.66519199 C52.4337604,2.11618701 51.5548489,2.73476967 50.82286,3.52006256 C50.0917456,4.30535544 49.5329153,5.22664877 49.1481183,6.2821877 C48.7633212,7.33860405 48.5709227,8.45907222 48.5709227,9.64359221 C48.5709227,10.8544349 48.7633212,11.9880644 49.1481183,13.0436033 C49.5329153,14.1000197 50.0917456,15.0204356 50.82286,15.8057284 C51.5548489,16.5918988 52.4337604,17.2166234 53.4613434,17.6799023 C54.4871773,18.1440587 55.6555611,18.3756981 56.9647456,18.3756981 C58.2748046,18.3756981 59.4493102,18.1440587 60.4891367,17.6799023 C61.5289633,17.2166234 62.4148711,16.5918988 63.1459854,15.8057284 C63.8779744,15.0204356 64.4359301,14.1000197 64.8216017,13.0436033 C65.2063987,11.9880644 65.3987973,10.8544349 65.3987973,9.64359221 M66.2462253,9.64359221 C66.2462253,11.0343064 66.0214688,12.3092009 65.5719559,13.4682757 C65.1233175,14.6282278 64.4875279,15.6258569 63.666336,16.4629177 C62.8442696,17.3017333 61.8621626,17.9510258 60.720015,18.4143047 C59.5778674,18.8775836 58.3255279,19.1092231 56.9647456,19.1092231 C55.6048378,19.1092231 54.3594947,18.8775836 53.2304651,18.4143047 C52.0996865,17.9510258 51.1245758,17.3017333 50.303384,16.4629177 C49.4813175,15.6258569 48.8455279,14.6282278 48.397764,13.4682757 C47.9473766,12.3092009 47.7234947,11.0343064 47.7234947,9.64359221 C47.7234947,8.252878 47.9473766,6.9850029 48.397764,5.83821206 C48.8455279,4.69142122 49.4813175,3.70695349 50.303384,2.88217661 C51.1245758,2.05739972 52.0996865,1.41424924 53.2304651,0.950970307 C54.3594947,0.486813954 55.6048378,0.255174488 56.9647456,0.255174488 C58.3255279,0.255174488 59.5778674,0.486813954 60.720015,0.950970307 C61.8621626,1.41424924 62.8442696,2.05739972 63.666336,2.88217661 C64.4875279,3.70695349 65.1233175,4.69142122 65.5719559,5.83821206 C66.0214688,6.9850029 66.2462253,8.252878 66.2462253,9.64359221" id="Fill-12"></path>
                    <path d="M12.5250592,40.2548353 C12.5250592,41.0532895 12.3702659,41.7683886 12.0633028,42.3992552 C11.7545906,43.0309992 11.3374356,43.5644719 10.8109633,44.0023056 C10.284491,44.4410167 9.67493747,44.7753146 8.98142825,45.006954 C8.28879356,45.2394709 7.54456109,45.3544132 6.74873083,45.3544132 C5.43867179,45.3544132 4.25104817,45.1034705 3.18585998,44.601585 C2.12154633,44.0996995 1.24176035,43.3591551 0.549125664,42.3799519 L1.24176035,41.9175504 C2.52470869,43.7188982 4.3734836,44.6208883 6.786336,44.6208883 C7.35128803,44.6208883 7.92236183,44.5305138 8.50043194,44.3506422 C9.07850205,44.1707707 9.60409983,43.8996472 10.0789744,43.5390267 C10.5538489,43.1784061 10.9395205,42.7274111 11.2342401,42.186919 C11.5289596,41.6455495 11.6776312,41.0278443 11.6776312,40.3320485 C11.6776312,39.508149 11.4904799,38.8386758 11.1196755,38.323629 C10.747122,37.8085822 10.2783692,37.3953163 9.71341718,37.0873411 C9.14933969,36.7776111 8.52579356,36.5266683 7.84540242,36.332758 C7.16501127,36.1406025 6.53009614,35.9659955 5.93978249,35.813324 C5.29699651,35.6316976 4.69443932,35.4325228 4.12948729,35.2131672 C3.56453526,34.9946891 3.07042087,34.7112817 2.64714411,34.3629451 C2.22386736,34.0154859 1.88979356,33.5837942 1.64667179,33.0696248 C1.40180094,32.5537005 1.28024006,31.9096726 1.28024006,31.1366636 C1.28024006,30.3654095 1.43415887,29.6950589 1.74199651,29.1273667 C2.04983415,28.5614294 2.46086736,28.0911311 2.9742216,27.7173492 C3.48757585,27.3444448 4.07176773,27.0610374 4.72679725,26.8671271 C5.38095223,26.6740942 6.04210352,26.5775778 6.71025113,26.5775778 C9.12222899,26.5775778 10.9333987,27.4409612 12.1402622,29.1659733 L11.4082733,29.5915231 C10.8170851,28.8185141 10.149812,28.2455574 9.40557954,27.872653 C8.66047253,27.4988711 7.76232124,27.3119802 6.71025113,27.3119802 C6.22225851,27.3119802 5.70890426,27.376032 5.16931386,27.5050131 C4.63059799,27.6339941 4.13560906,27.8463303 3.68697068,28.1420216 C3.23745777,28.4385903 2.86490426,28.8316755 2.5701847,29.3203996 C2.27459061,29.8108787 2.12679356,30.4022612 2.12679356,31.098057 C2.12679356,31.8701886 2.24922899,32.4887713 2.49322529,32.9529276 C2.7372216,33.4162065 3.07654264,33.7899884 3.51381201,34.0733958 C3.94933231,34.3568032 4.47667917,34.5945846 5.09235445,34.7884949 C5.70890426,34.9806504 6.38842087,35.1684187 7.13352788,35.3482903 C7.8270371,35.5281618 8.50043194,35.740498 9.15458692,35.9861762 C9.81049098,36.230977 10.3876865,36.5336877 10.8879227,36.8934308 C11.3890334,37.2549287 11.786074,37.7050463 12.0816681,38.2455384 C12.3763877,38.7869079 12.5250592,39.4572585 12.5250592,40.2548353" id="Fill-14"></path>
                    <path d="M26.9745382,35.1933375 L24.2398556,35.1933375 C23.2647449,35.1933375 22.2380364,35.2512474 21.1597301,35.3670671 C20.0814238,35.4828868 19.0923205,35.7233005 18.1941692,36.0821662 C17.2960179,36.4436642 16.5579072,36.958711 15.9807116,37.6273067 C15.4026415,38.2976573 15.1131692,39.1987699 15.1131692,40.331522 C15.1131692,41.1571763 15.2732098,41.8459528 15.5950401,42.3996062 C15.9151212,42.9532596 16.3261544,43.3981127 16.8272651,43.7315331 C17.3283758,44.0667084 17.8802098,44.313264 18.482767,44.4659355 C19.0853242,44.6203618 19.6581471,44.6984524 20.1968629,44.6984524 C21.5060474,44.6984524 22.5965973,44.4536516 23.4702615,43.96405 C24.3421766,43.4744484 25.0426821,42.8514786 25.5691544,42.0898761 C26.0947522,41.3309059 26.4603094,40.4929677 26.665826,39.5786937 C26.8713426,38.6644198 26.9745382,37.771204 26.9745382,36.8929043 L26.9745382,35.1933375 Z M27.8219663,40.8737689 C27.8219663,41.5432421 27.8534496,42.2583412 27.9181655,43.0173114 C27.9811323,43.7771591 28.0519699,44.4018837 28.1298039,44.8914853 L27.3208556,44.8914853 C27.2692578,44.6344006 27.2307781,44.3176511 27.2054164,43.9447467 C27.1791803,43.5718423 27.1476969,43.1848991 27.1092172,42.7856719 C27.0707375,42.3864448 27.0445013,41.9933597 27.0322578,41.6081713 C27.0191397,41.2203507 27.0130179,40.8992142 27.0130179,40.641252 L26.8975788,40.641252 C26.38335,42.2653606 25.4983168,43.4683064 24.2398556,44.2535993 C22.9822688,45.0397696 21.6346046,45.4319774 20.1968629,45.4319774 C19.4779921,45.4319774 18.765243,45.329319 18.0594902,45.1231247 C17.3528629,44.9169305 16.7170733,44.6080779 16.1529958,44.1956895 C15.5880437,43.7841784 15.1332836,43.2550928 14.7860917,42.6119423 C14.4397744,41.9687919 14.2666157,41.2080668 14.2666157,40.331522 C14.2666157,39.0706663 14.5936932,38.0528565 15.2487227,37.2798475 C15.9028777,36.5068386 16.7170733,35.9075592 17.693933,35.4828868 C18.6690437,35.0582145 19.7149921,34.7818265 20.8326526,34.6528454 C21.9494386,34.5238643 22.9691508,34.4598125 23.8944127,34.4598125 L26.9745382,34.4598125 L26.9745382,33.0296143 C26.9745382,31.0466401 26.4471913,29.598016 25.3951212,28.6828646 C24.3421766,27.7694681 22.9691508,27.3132086 21.2751692,27.3132086 C20.2222246,27.3132086 19.2401175,27.5044866 18.3288482,27.8914298 C17.4175788,28.2774956 16.6025087,28.7934198 15.8836378,29.4365703 L15.4218814,28.7793811 C16.2430733,28.0590175 17.1735825,27.511506 18.2134091,27.1377241 C19.2532356,26.7656971 20.2738223,26.5779287 21.2751692,26.5779287 C23.3032246,26.5779287 24.9010068,27.0991175 26.0693906,28.1423726 C27.2377744,29.1856276 27.8219663,30.8272845 27.8219663,33.0682209 L27.8219663,40.8737689 Z" id="Fill-16"></path>
                    <path d="M33.0331677,29.5911721 C33.5211604,28.9480216 34.0729943,28.4005102 34.6895441,27.9495152 C35.3060939,27.4985201 35.9724925,27.1572029 36.6922378,26.9255634 C37.4102342,26.6930465 38.1544666,26.5772268 38.9249353,26.5772268 C40.1571604,26.5772268 41.1838688,26.7965824 42.0059353,27.2344161 C42.8271271,27.6722497 43.4821567,28.2522258 43.9701493,28.9734669 C44.4572674,29.6947079 44.8044592,30.5054461 45.0091013,31.4065587 C45.2154925,32.3094262 45.3178135,33.2237001 45.3178135,34.150258 L45.3178135,44.8907833 L44.4703854,44.8907833 L44.4703854,34.2274711 C44.4703854,33.5071075 44.393426,32.7340985 44.2395072,31.910199 C44.0855884,31.0854222 43.7969906,30.3396133 43.3728393,29.6683853 C42.9495626,28.9989121 42.3784888,28.4391168 41.6596179,27.9881217 C40.9407471,27.5371267 40.0286032,27.3116292 38.9249353,27.3116292 C37.94895,27.3116292 37.0315589,27.5116815 36.1718873,27.9109086 C35.3113412,28.3101357 34.5671087,28.8830924 33.9383153,29.6297787 C33.3086474,30.3773424 32.8084113,31.2854744 32.4358578,32.3532973 C32.0641788,33.422875 31.8787766,34.6398596 31.8787766,36.0051285 L31.8787766,44.8907833 L31.0313485,44.8907833 L31.0313485,31.600469 C31.0313485,31.3170616 31.0243522,30.9696024 31.0112342,30.557214 C30.9981161,30.145703 30.9858725,29.7262951 30.973629,29.3016228 C30.9596364,28.8778279 30.9403965,28.470704 30.9150349,28.0846382 C30.8896733,27.6985724 30.8643116,27.3765585 30.8380755,27.1185963 L31.6855035,27.1185963 C31.7108651,27.3765585 31.730105,27.6985724 31.7432231,28.0846382 C31.7563412,28.470704 31.7685847,28.8892344 31.7817028,29.3402294 C31.7948209,29.7912244 31.8070644,30.2299355 31.8201825,30.6537304 C31.8333006,31.0784028 31.8394223,31.459204 31.8394223,31.7935019 L31.9172563,31.7935019 C32.1734961,30.9696024 32.5451751,30.2352 33.0331677,29.5911721" id="Fill-18"></path>
                    <path d="M65.4346533,35.9662587 C65.4346533,34.7817387 65.2422548,33.6612706 64.8574578,32.6048542 C64.4717862,31.5493153 63.9138305,30.628022 63.1818415,29.8427291 C62.4507271,29.0574362 61.5648194,28.4388535 60.5249928,27.9878585 C59.4851663,27.5377409 58.3106607,27.3122434 57.0006017,27.3122434 C55.6914172,27.3122434 54.5230334,27.5377409 53.4971995,27.9878585 C52.4696164,28.4388535 51.590705,29.0574362 50.8587161,29.8427291 C50.1276017,30.628022 49.5687714,31.5493153 49.1839744,32.6048542 C48.7991773,33.6612706 48.6067788,34.7817387 48.6067788,35.9662587 C48.6067788,37.1771014 48.7991773,38.3107309 49.1839744,39.3662698 C49.5687714,40.4226862 50.1276017,41.3431021 50.8587161,42.128395 C51.590705,42.9145653 52.4696164,43.5392899 53.4971995,44.0025688 C54.5230334,44.4667252 55.6914172,44.6983646 57.0006017,44.6983646 C58.3106607,44.6983646 59.4851663,44.4667252 60.5249928,44.0025688 C61.5648194,43.5392899 62.4507271,42.9145653 63.1818415,42.128395 C63.9138305,41.3431021 64.4717862,40.4226862 64.8574578,39.3662698 C65.2422548,38.3107309 65.4346533,37.1771014 65.4346533,35.9662587 M66.2820814,35.9662587 C66.2820814,37.3569729 66.0573249,38.6318674 65.607812,39.7909422 C65.1591736,40.9508943 64.523384,41.9485234 63.7021921,42.7855842 C62.8801257,43.6243998 61.8980187,44.2736923 60.7558711,44.7369712 C59.6137234,45.2002501 58.361384,45.4318896 57.0006017,45.4318896 C55.6406939,45.4318896 54.3953508,45.2002501 53.2663212,44.7369712 C52.1355426,44.2736923 51.1604319,43.6243998 50.3392401,42.7855842 C49.5171736,41.9485234 48.881384,40.9508943 48.4336201,39.7909422 C47.9832327,38.6318674 47.7593508,37.3569729 47.7593508,35.9662587 C47.7593508,34.5755445 47.9832327,33.3076694 48.4336201,32.1608786 C48.881384,31.0140877 49.5171736,30.02962 50.3392401,29.2048431 C51.1604319,28.3800662 52.1355426,27.7369158 53.2663212,27.2736368 C54.3953508,26.8094805 55.6406939,26.577841 57.0006017,26.577841 C58.361384,26.577841 59.6137234,26.8094805 60.7558711,27.2736368 C61.8980187,27.7369158 62.8801257,28.3800662 63.7021921,29.2048431 C64.523384,30.02962 65.1591736,31.0140877 65.607812,32.1608786 C66.0573249,33.3076694 66.2820814,34.5755445 66.2820814,35.9662587" id="Fill-20"></path>
                </g>
                <g id="Group-2-Copy-2">
                    <path d="M2.30983452,3.26850561 C2.79782714,2.62535512 3.34966109,2.07784366 3.9662109,1.62684864 C4.58276072,1.17585362 5.24915924,0.834536378 5.96890463,0.602896913 C6.68690094,0.370380026 7.43113341,0.254560293 8.20160205,0.254560293 C9.43382714,0.254560293 10.4605356,0.473915847 11.282602,0.911749534 C12.1037939,1.34958322 12.7588234,1.92955931 13.2468161,2.65080037 C13.7339342,3.37204143 14.081126,4.18277956 14.2857681,5.08389218 C14.4921592,5.98675964 14.5944803,6.90103359 14.5944803,7.82759145 L14.5944803,18.5681168 L13.7470522,18.5681168 L13.7470522,7.90480461 C13.7470522,7.18444097 13.6700928,6.41143199 13.516174,5.58753253 C13.3622552,4.76275565 13.0736574,4.01694676 12.6495061,3.34571876 C12.2262294,2.67624561 11.6551556,2.11645024 10.9362847,1.66545522 C10.2174139,1.2144602 9.30526994,0.988962689 8.20160205,0.988962689 C7.22561681,0.988962689 6.30822566,1.18901495 5.44855408,1.58824206 C4.58800795,1.98746917 3.84377548,2.56042588 3.21498212,3.30711219 C2.58531422,4.05467592 2.08507806,4.96280791 1.71252456,6.03063075 C1.34084559,7.10020843 1.15544338,8.31719305 1.15544338,9.68246202 L1.15544338,18.5681168 L0.308015332,18.5681168 L0.308015332,5.27780249 C0.308015332,4.99439511 0.301019022,4.64693591 0.287900941,4.23454747 C0.27478286,3.82303645 0.262539317,3.40362863 0.250295775,2.97895628 C0.236303155,2.55516135 0.217063302,2.14803744 0.191701679,1.76197166 C0.166340055,1.37590589 0.140978432,1.05389193 0.114742269,0.795929801 L0.962170313,0.795929801 C0.987531937,1.05389193 1.00677179,1.37590589 1.01988987,1.76197166 C1.03300795,2.14803744 1.04525149,2.56656784 1.05836958,3.01756286 C1.07148766,3.46855787 1.0837312,3.90726898 1.09684928,4.33106391 C1.10996736,4.75573627 1.11608913,5.13653751 1.11608913,5.47083537 L1.19392308,5.47083537 C1.45016293,4.64693591 1.8218419,3.91253352 2.30983452,3.26850561" id="Fill-6"></path>
                    <path d="M33.73516,9.64359221 C33.73516,8.45907222 33.5427615,7.33860405 33.1579644,6.2821877 C32.7722928,5.22664877 32.2143371,4.30535544 31.4823482,3.52006256 C30.7512338,2.73476967 29.865326,2.11618701 28.8254995,1.66519199 C27.7856729,1.21507439 26.6111674,0.989576884 25.3011083,0.989576884 C23.9919238,0.989576884 22.8235401,1.21507439 21.7977061,1.66519199 C20.7701231,2.11618701 19.8912116,2.73476967 19.1592227,3.52006256 C18.4281083,4.30535544 17.8692781,5.22664877 17.484481,6.2821877 C17.099684,7.33860405 16.9072854,8.45907222 16.9072854,9.64359221 C16.9072854,10.8544349 17.099684,11.9880644 17.484481,13.0436033 C17.8692781,14.1000197 18.4281083,15.0204356 19.1592227,15.8057284 C19.8912116,16.5918988 20.7701231,17.2166234 21.7977061,17.6799023 C22.8235401,18.1440587 23.9919238,18.3756981 25.3011083,18.3756981 C26.6111674,18.3756981 27.7856729,18.1440587 28.8254995,17.6799023 C29.865326,17.2166234 30.7512338,16.5918988 31.4823482,15.8057284 C32.2143371,15.0204356 32.7722928,14.1000197 33.1579644,13.0436033 C33.5427615,11.9880644 33.73516,10.8544349 33.73516,9.64359221 M34.582588,9.64359221 C34.582588,11.0343064 34.3578316,12.3092009 33.9083187,13.4682757 C33.4596803,14.6282278 32.8238906,15.6258569 32.0026987,16.4629177 C31.1806323,17.3017333 30.1985253,17.9510258 29.0563777,18.4143047 C27.9142301,18.8775836 26.6618906,19.1092231 25.3011083,19.1092231 C23.9412006,19.1092231 22.6958574,18.8775836 21.5668279,18.4143047 C20.4360493,17.9510258 19.4609386,17.3017333 18.6397467,16.4629177 C17.8176803,15.6258569 17.1818906,14.6282278 16.7341268,13.4682757 C16.2837393,12.3092009 16.0598574,11.0343064 16.0598574,9.64359221 C16.0598574,8.252878 16.2837393,6.9850029 16.7341268,5.83821206 C17.1818906,4.69142122 17.8176803,3.70695349 18.6397467,2.88217661 C19.4609386,2.05739972 20.4360493,1.41424924 21.5668279,0.950970307 C22.6958574,0.486813954 23.9412006,0.255174488 25.3011083,0.255174488 C26.6618906,0.255174488 27.9142301,0.486813954 29.0563777,0.950970307 C30.1985253,1.41424924 31.1806323,2.05739972 32.0026987,2.88217661 C32.8238906,3.70695349 33.4596803,4.69142122 33.9083187,5.83821206 C34.3578316,6.9850029 34.582588,8.252878 34.582588,9.64359221" id="Fill-8"></path>
                    <polygon id="Fill-10" points="41.5787231 18.5685555 40.4628116 18.5685555 33.4918633 0.79549109 34.4162508 0.79549109 41.0015275 17.7183334 41.0784869 17.7183334 47.4320109 0.79549109 48.3563984 0.79549109"></polygon>
                    <path d="M65.3987973,9.64359221 C65.3987973,8.45907222 65.2063987,7.33860405 64.8216017,6.2821877 C64.4359301,5.22664877 63.8779744,4.30535544 63.1459854,3.52006256 C62.4148711,2.73476967 61.5289633,2.11618701 60.4891367,1.66519199 C59.4493102,1.21507439 58.2748046,0.989576884 56.9647456,0.989576884 C55.6555611,0.989576884 54.4871773,1.21507439 53.4613434,1.66519199 C52.4337604,2.11618701 51.5548489,2.73476967 50.82286,3.52006256 C50.0917456,4.30535544 49.5329153,5.22664877 49.1481183,6.2821877 C48.7633212,7.33860405 48.5709227,8.45907222 48.5709227,9.64359221 C48.5709227,10.8544349 48.7633212,11.9880644 49.1481183,13.0436033 C49.5329153,14.1000197 50.0917456,15.0204356 50.82286,15.8057284 C51.5548489,16.5918988 52.4337604,17.2166234 53.4613434,17.6799023 C54.4871773,18.1440587 55.6555611,18.3756981 56.9647456,18.3756981 C58.2748046,18.3756981 59.4493102,18.1440587 60.4891367,17.6799023 C61.5289633,17.2166234 62.4148711,16.5918988 63.1459854,15.8057284 C63.8779744,15.0204356 64.4359301,14.1000197 64.8216017,13.0436033 C65.2063987,11.9880644 65.3987973,10.8544349 65.3987973,9.64359221 M66.2462253,9.64359221 C66.2462253,11.0343064 66.0214688,12.3092009 65.5719559,13.4682757 C65.1233175,14.6282278 64.4875279,15.6258569 63.666336,16.4629177 C62.8442696,17.3017333 61.8621626,17.9510258 60.720015,18.4143047 C59.5778674,18.8775836 58.3255279,19.1092231 56.9647456,19.1092231 C55.6048378,19.1092231 54.3594947,18.8775836 53.2304651,18.4143047 C52.0996865,17.9510258 51.1245758,17.3017333 50.303384,16.4629177 C49.4813175,15.6258569 48.8455279,14.6282278 48.397764,13.4682757 C47.9473766,12.3092009 47.7234947,11.0343064 47.7234947,9.64359221 C47.7234947,8.252878 47.9473766,6.9850029 48.397764,5.83821206 C48.8455279,4.69142122 49.4813175,3.70695349 50.303384,2.88217661 C51.1245758,2.05739972 52.0996865,1.41424924 53.2304651,0.950970307 C54.3594947,0.486813954 55.6048378,0.255174488 56.9647456,0.255174488 C58.3255279,0.255174488 59.5778674,0.486813954 60.720015,0.950970307 C61.8621626,1.41424924 62.8442696,2.05739972 63.666336,2.88217661 C64.4875279,3.70695349 65.1233175,4.69142122 65.5719559,5.83821206 C66.0214688,6.9850029 66.2462253,8.252878 66.2462253,9.64359221" id="Fill-12"></path>
                    <path d="M12.5250592,40.2548353 C12.5250592,41.0532895 12.3702659,41.7683886 12.0633028,42.3992552 C11.7545906,43.0309992 11.3374356,43.5644719 10.8109633,44.0023056 C10.284491,44.4410167 9.67493747,44.7753146 8.98142825,45.006954 C8.28879356,45.2394709 7.54456109,45.3544132 6.74873083,45.3544132 C5.43867179,45.3544132 4.25104817,45.1034705 3.18585998,44.601585 C2.12154633,44.0996995 1.24176035,43.3591551 0.549125664,42.3799519 L1.24176035,41.9175504 C2.52470869,43.7188982 4.3734836,44.6208883 6.786336,44.6208883 C7.35128803,44.6208883 7.92236183,44.5305138 8.50043194,44.3506422 C9.07850205,44.1707707 9.60409983,43.8996472 10.0789744,43.5390267 C10.5538489,43.1784061 10.9395205,42.7274111 11.2342401,42.186919 C11.5289596,41.6455495 11.6776312,41.0278443 11.6776312,40.3320485 C11.6776312,39.508149 11.4904799,38.8386758 11.1196755,38.323629 C10.747122,37.8085822 10.2783692,37.3953163 9.71341718,37.0873411 C9.14933969,36.7776111 8.52579356,36.5266683 7.84540242,36.332758 C7.16501127,36.1406025 6.53009614,35.9659955 5.93978249,35.813324 C5.29699651,35.6316976 4.69443932,35.4325228 4.12948729,35.2131672 C3.56453526,34.9946891 3.07042087,34.7112817 2.64714411,34.3629451 C2.22386736,34.0154859 1.88979356,33.5837942 1.64667179,33.0696248 C1.40180094,32.5537005 1.28024006,31.9096726 1.28024006,31.1366636 C1.28024006,30.3654095 1.43415887,29.6950589 1.74199651,29.1273667 C2.04983415,28.5614294 2.46086736,28.0911311 2.9742216,27.7173492 C3.48757585,27.3444448 4.07176773,27.0610374 4.72679725,26.8671271 C5.38095223,26.6740942 6.04210352,26.5775778 6.71025113,26.5775778 C9.12222899,26.5775778 10.9333987,27.4409612 12.1402622,29.1659733 L11.4082733,29.5915231 C10.8170851,28.8185141 10.149812,28.2455574 9.40557954,27.872653 C8.66047253,27.4988711 7.76232124,27.3119802 6.71025113,27.3119802 C6.22225851,27.3119802 5.70890426,27.376032 5.16931386,27.5050131 C4.63059799,27.6339941 4.13560906,27.8463303 3.68697068,28.1420216 C3.23745777,28.4385903 2.86490426,28.8316755 2.5701847,29.3203996 C2.27459061,29.8108787 2.12679356,30.4022612 2.12679356,31.098057 C2.12679356,31.8701886 2.24922899,32.4887713 2.49322529,32.9529276 C2.7372216,33.4162065 3.07654264,33.7899884 3.51381201,34.0733958 C3.94933231,34.3568032 4.47667917,34.5945846 5.09235445,34.7884949 C5.70890426,34.9806504 6.38842087,35.1684187 7.13352788,35.3482903 C7.8270371,35.5281618 8.50043194,35.740498 9.15458692,35.9861762 C9.81049098,36.230977 10.3876865,36.5336877 10.8879227,36.8934308 C11.3890334,37.2549287 11.786074,37.7050463 12.0816681,38.2455384 C12.3763877,38.7869079 12.5250592,39.4572585 12.5250592,40.2548353" id="Fill-14"></path>
                    <path d="M26.9745382,35.1933375 L24.2398556,35.1933375 C23.2647449,35.1933375 22.2380364,35.2512474 21.1597301,35.3670671 C20.0814238,35.4828868 19.0923205,35.7233005 18.1941692,36.0821662 C17.2960179,36.4436642 16.5579072,36.958711 15.9807116,37.6273067 C15.4026415,38.2976573 15.1131692,39.1987699 15.1131692,40.331522 C15.1131692,41.1571763 15.2732098,41.8459528 15.5950401,42.3996062 C15.9151212,42.9532596 16.3261544,43.3981127 16.8272651,43.7315331 C17.3283758,44.0667084 17.8802098,44.313264 18.482767,44.4659355 C19.0853242,44.6203618 19.6581471,44.6984524 20.1968629,44.6984524 C21.5060474,44.6984524 22.5965973,44.4536516 23.4702615,43.96405 C24.3421766,43.4744484 25.0426821,42.8514786 25.5691544,42.0898761 C26.0947522,41.3309059 26.4603094,40.4929677 26.665826,39.5786937 C26.8713426,38.6644198 26.9745382,37.771204 26.9745382,36.8929043 L26.9745382,35.1933375 Z M27.8219663,40.8737689 C27.8219663,41.5432421 27.8534496,42.2583412 27.9181655,43.0173114 C27.9811323,43.7771591 28.0519699,44.4018837 28.1298039,44.8914853 L27.3208556,44.8914853 C27.2692578,44.6344006 27.2307781,44.3176511 27.2054164,43.9447467 C27.1791803,43.5718423 27.1476969,43.1848991 27.1092172,42.7856719 C27.0707375,42.3864448 27.0445013,41.9933597 27.0322578,41.6081713 C27.0191397,41.2203507 27.0130179,40.8992142 27.0130179,40.641252 L26.8975788,40.641252 C26.38335,42.2653606 25.4983168,43.4683064 24.2398556,44.2535993 C22.9822688,45.0397696 21.6346046,45.4319774 20.1968629,45.4319774 C19.4779921,45.4319774 18.765243,45.329319 18.0594902,45.1231247 C17.3528629,44.9169305 16.7170733,44.6080779 16.1529958,44.1956895 C15.5880437,43.7841784 15.1332836,43.2550928 14.7860917,42.6119423 C14.4397744,41.9687919 14.2666157,41.2080668 14.2666157,40.331522 C14.2666157,39.0706663 14.5936932,38.0528565 15.2487227,37.2798475 C15.9028777,36.5068386 16.7170733,35.9075592 17.693933,35.4828868 C18.6690437,35.0582145 19.7149921,34.7818265 20.8326526,34.6528454 C21.9494386,34.5238643 22.9691508,34.4598125 23.8944127,34.4598125 L26.9745382,34.4598125 L26.9745382,33.0296143 C26.9745382,31.0466401 26.4471913,29.598016 25.3951212,28.6828646 C24.3421766,27.7694681 22.9691508,27.3132086 21.2751692,27.3132086 C20.2222246,27.3132086 19.2401175,27.5044866 18.3288482,27.8914298 C17.4175788,28.2774956 16.6025087,28.7934198 15.8836378,29.4365703 L15.4218814,28.7793811 C16.2430733,28.0590175 17.1735825,27.511506 18.2134091,27.1377241 C19.2532356,26.7656971 20.2738223,26.5779287 21.2751692,26.5779287 C23.3032246,26.5779287 24.9010068,27.0991175 26.0693906,28.1423726 C27.2377744,29.1856276 27.8219663,30.8272845 27.8219663,33.0682209 L27.8219663,40.8737689 Z" id="Fill-16"></path>
                    <path d="M33.0331677,29.5911721 C33.5211604,28.9480216 34.0729943,28.4005102 34.6895441,27.9495152 C35.3060939,27.4985201 35.9724925,27.1572029 36.6922378,26.9255634 C37.4102342,26.6930465 38.1544666,26.5772268 38.9249353,26.5772268 C40.1571604,26.5772268 41.1838688,26.7965824 42.0059353,27.2344161 C42.8271271,27.6722497 43.4821567,28.2522258 43.9701493,28.9734669 C44.4572674,29.6947079 44.8044592,30.5054461 45.0091013,31.4065587 C45.2154925,32.3094262 45.3178135,33.2237001 45.3178135,34.150258 L45.3178135,44.8907833 L44.4703854,44.8907833 L44.4703854,34.2274711 C44.4703854,33.5071075 44.393426,32.7340985 44.2395072,31.910199 C44.0855884,31.0854222 43.7969906,30.3396133 43.3728393,29.6683853 C42.9495626,28.9989121 42.3784888,28.4391168 41.6596179,27.9881217 C40.9407471,27.5371267 40.0286032,27.3116292 38.9249353,27.3116292 C37.94895,27.3116292 37.0315589,27.5116815 36.1718873,27.9109086 C35.3113412,28.3101357 34.5671087,28.8830924 33.9383153,29.6297787 C33.3086474,30.3773424 32.8084113,31.2854744 32.4358578,32.3532973 C32.0641788,33.422875 31.8787766,34.6398596 31.8787766,36.0051285 L31.8787766,44.8907833 L31.0313485,44.8907833 L31.0313485,31.600469 C31.0313485,31.3170616 31.0243522,30.9696024 31.0112342,30.557214 C30.9981161,30.145703 30.9858725,29.7262951 30.973629,29.3016228 C30.9596364,28.8778279 30.9403965,28.470704 30.9150349,28.0846382 C30.8896733,27.6985724 30.8643116,27.3765585 30.8380755,27.1185963 L31.6855035,27.1185963 C31.7108651,27.3765585 31.730105,27.6985724 31.7432231,28.0846382 C31.7563412,28.470704 31.7685847,28.8892344 31.7817028,29.3402294 C31.7948209,29.7912244 31.8070644,30.2299355 31.8201825,30.6537304 C31.8333006,31.0784028 31.8394223,31.459204 31.8394223,31.7935019 L31.9172563,31.7935019 C32.1734961,30.9696024 32.5451751,30.2352 33.0331677,29.5911721" id="Fill-18"></path>
                    <path d="M65.4346533,35.9662587 C65.4346533,34.7817387 65.2422548,33.6612706 64.8574578,32.6048542 C64.4717862,31.5493153 63.9138305,30.628022 63.1818415,29.8427291 C62.4507271,29.0574362 61.5648194,28.4388535 60.5249928,27.9878585 C59.4851663,27.5377409 58.3106607,27.3122434 57.0006017,27.3122434 C55.6914172,27.3122434 54.5230334,27.5377409 53.4971995,27.9878585 C52.4696164,28.4388535 51.590705,29.0574362 50.8587161,29.8427291 C50.1276017,30.628022 49.5687714,31.5493153 49.1839744,32.6048542 C48.7991773,33.6612706 48.6067788,34.7817387 48.6067788,35.9662587 C48.6067788,37.1771014 48.7991773,38.3107309 49.1839744,39.3662698 C49.5687714,40.4226862 50.1276017,41.3431021 50.8587161,42.128395 C51.590705,42.9145653 52.4696164,43.5392899 53.4971995,44.0025688 C54.5230334,44.4667252 55.6914172,44.6983646 57.0006017,44.6983646 C58.3106607,44.6983646 59.4851663,44.4667252 60.5249928,44.0025688 C61.5648194,43.5392899 62.4507271,42.9145653 63.1818415,42.128395 C63.9138305,41.3431021 64.4717862,40.4226862 64.8574578,39.3662698 C65.2422548,38.3107309 65.4346533,37.1771014 65.4346533,35.9662587 M66.2820814,35.9662587 C66.2820814,37.3569729 66.0573249,38.6318674 65.607812,39.7909422 C65.1591736,40.9508943 64.523384,41.9485234 63.7021921,42.7855842 C62.8801257,43.6243998 61.8980187,44.2736923 60.7558711,44.7369712 C59.6137234,45.2002501 58.361384,45.4318896 57.0006017,45.4318896 C55.6406939,45.4318896 54.3953508,45.2002501 53.2663212,44.7369712 C52.1355426,44.2736923 51.1604319,43.6243998 50.3392401,42.7855842 C49.5171736,41.9485234 48.881384,40.9508943 48.4336201,39.7909422 C47.9832327,38.6318674 47.7593508,37.3569729 47.7593508,35.9662587 C47.7593508,34.5755445 47.9832327,33.3076694 48.4336201,32.1608786 C48.881384,31.0140877 49.5171736,30.02962 50.3392401,29.2048431 C51.1604319,28.3800662 52.1355426,27.7369158 53.2663212,27.2736368 C54.3953508,26.8094805 55.6406939,26.577841 57.0006017,26.577841 C58.361384,26.577841 59.6137234,26.8094805 60.7558711,27.2736368 C61.8980187,27.7369158 62.8801257,28.3800662 63.7021921,29.2048431 C64.523384,30.02962 65.1591736,31.0140877 65.607812,32.1608786 C66.0573249,33.3076694 66.2820814,34.5755445 66.2820814,35.9662587" id="Fill-20"></path>
                </g>
            </g>
        </g>
    </g>
</svg>